<svg width="760" height="220" viewBox="0 0 760 220" fill="none" xmlns="http://www.w3.org/2000/svg" role="img" aria-labelledby="title desc">
  <title id="title">Memoria logo</title>
  <desc id="desc">A compact memory graph mark beside the Memoria wordmark.</desc>
  <rect width="760" height="220" rx="28" fill="#F8FAFC"/>
  <rect x="28" y="28" width="164" height="164" rx="32" fill="#111827"/>
  <path d="M70 143V77H91L110 112L129 77H150V143H131V108L116 134H104L89 108V143H70Z" fill="#F8FAFC"/>
  <circle cx="110" cy="55" r="8" fill="#38BDF8"/>
  <circle cx="154" cy="98" r="8" fill="#34D399"/>
  <circle cx="110" cy="165" r="8" fill="#F59E0B"/>
  <circle cx="66" cy="98" r="8" fill="#A78BFA"/>
  <path d="M110 63V76M146 98H131M110 144V157M74 98H89" stroke="#F8FAFC" stroke-width="5" stroke-linecap="round"/>
  <path d="M230 145V75H251L273 115L295 75H316V145H297V105L281 134H265L249 105V145H230Z" fill="#111827"/>
  <path d="M350 147C333 147 322 136 322 119C322 102 333 91 350 91C366 91 376 101 376 117C376 120 376 123 375 126H341C343 132 347 135 354 135C360 135 365 133 370 130L375 141C368 145 360 147 350 147ZM341 114H359C358 108 355 104 350 104C345 104 342 108 341 114Z" fill="#111827"/>
  <path d="M383 145V93H400L402 99C406 94 412 91 420 91C428 91 434 94 438 101C442 95 449 91 458 91C471 91 479 100 479 115V145H460V118C460 111 457 107 452 107C446 107 443 111 443 119V145H424V118C424 111 421 107 416 107C410 107 407 111 407 119V145H383Z" fill="#111827"/>
  <path d="M514 147C497 147 485 135 485 119C485 103 497 91 514 91C531 91 543 103 543 119C543 135 531 147 514 147ZM514 131C520 131 524 126 524 119C524 112 520 107 514 107C508 107 504 112 504 119C504 126 508 131 514 131Z" fill="#111827"/>
  <path d="M550 145V93H567L569 101C572 95 578 92 586 92C589 92 591 92 593 93V111C590 110 587 109 584 109C574 109 569 114 569 125V145H550Z" fill="#111827"/>
  <path d="M600 145V93H619V145H600ZM599 86V70H620V86H599Z" fill="#111827"/>
  <path d="M650 147C637 147 628 139 628 128C628 117 637 110 653 110H665V109C665 104 661 102 655 102C648 102 641 104 635 107L630 94C638 90 647 88 658 88C675 88 684 96 684 112V145H668L666 140C662 144 657 147 650 147ZM656 135C662 135 665 131 665 126V122H656C650 122 647 124 647 128C647 132 650 135 656 135Z" fill="#111827"/>
  <path d="M230 170H683" stroke="#CBD5E1" stroke-width="2" stroke-linecap="round"/>
  <text x="230" y="194" fill="#475569" font-family="Arial, Helvetica, sans-serif" font-size="18" font-weight="600">Memory-driven, token-aware development for LLM coding agents</text>
</svg>
